<svg xmlns:xlink="http://www.w3.org/1999/xlink" class="chakra-image css-18a3bay" alt="Logo" xmlns="http://www.w3.org/2000/svg" width="147" height="54"><defs><symbol fill="#6EC800 " viewBox="0 0 147 54" id="icon-logo" xmlns="http://www.w3.org/2000/svg"><path d="M96.828 24.865v3.365h4.708v3.027h-9.415v-9.414h20.177V11.08H85.397a4.033 4.033 0 0 0-4.034 4.034V37.98a4.033 4.033 0 0 0 4.034 4.034h22.867a4.033 4.033 0 0 0 4.034-4.034V24.865h-15.47ZM142.966 11.075h-22.867a4.034 4.034 0 0 0-4.034 4.034v22.868a4.033 4.033 0 0 0 4.034 4.033h22.867A4.033 4.033 0 0 0 147 37.977V15.109a4.036 4.036 0 0 0-4.034-4.034Zm-6.728 20.178h-9.415v-9.415h9.415v9.415ZM59.506 11.076 37.232 45.375h-3.858l5.006 7.71 16.514-7.71h-4.83l5.68-8.746h11.09v5.381h10.761V11.07H59.507v.006Zm-.27 20.177 7.592-11.693v11.693h-7.592ZM12.793 42.015l9.334-14.369v14.369H35.05L57.323 7.71h3.488L55.805 0 39.286 7.711h5.087L32.885 25.406v-14.33H20.054l-9.296 14.316V11.076H0v30.939h12.793Z" fill="#6EC800"></path></symbol></defs><g><path d="M96.828 24.865v3.365h4.708v3.027h-9.415v-9.414h20.177V11.08H85.397a4.033 4.033 0 0 0-4.034 4.034V37.98a4.033 4.033 0 0 0 4.034 4.034h22.867a4.033 4.033 0 0 0 4.034-4.034V24.865h-15.47ZM142.966 11.075h-22.867a4.034 4.034 0 0 0-4.034 4.034v22.868a4.033 4.033 0 0 0 4.034 4.033h22.867A4.033 4.033 0 0 0 147 37.977V15.109a4.036 4.036 0 0 0-4.034-4.034Zm-6.728 20.178h-9.415v-9.415h9.415v9.415ZM59.506 11.076 37.232 45.375h-3.858l5.006 7.71 16.514-7.71h-4.83l5.68-8.746h11.09v5.381h10.761V11.07H59.507v.006Zm-.27 20.177 7.592-11.693v11.693h-7.592ZM12.793 42.015l9.334-14.369v14.369H35.05L57.323 7.71h3.488L55.805 0 39.286 7.711h5.087L32.885 25.406v-14.33H20.054l-9.296 14.316V11.076H0v30.939h12.793Z" fill="#6EC800"></path></g></svg>